# xmcd
#
# Track frame offsets:
#	150
#	7515
#	21657
#	30669
#	33192
#	47860
#	56700
#	61660
#	72310
#	85854
#	97010
#	104355
#	115372
#	129972
#	138332
#	149722
#	165902
#	180017
#
# Disc length: 2444 seconds
#
# Revision: 2
# Processed by: cddbd v1.5.2PL0 Copyright (c) Steve Scherf et al.
# Submitted via: EZCDAudioConverter 7.1.2.1
#
DISCID=e9098a12
DTITLE=Patsy Cline - Patsy Cline - Live At The Cimarron Ballroom
DYEAR=1997
DGENRE=Country
TTITLE0=Come On In
TTITLE1=A Poor Man's Roses
TTITLE2=Bill Bailey, Won't You Please Come Home
TTITLE3=Patsy Dialog
TTITLE4=I Fall To Pieces
TTITLE5=Lovesick Blues
TTITLE6=Patsy Dialog
TTITLE7=Shake, Rattle And Roll
TTITLE8=There He Goes
TTITLE9=San Antonio Rose (Intermission)
TTITLE10=Patsy Talks About Car Accident
TTITLE11=Stupid Cupid
TTITLE12=I Fall To Pieces
TTITLE13=If I Could See The World Through The Eyes Of A Child
TTITLE14=Walking After Midnight
TTITLE15=Foolin' Around
TTITLE16=When My Dreamboat Comes Home
TTITLE17=Patsy/Announcer Ending
EXTD=
EXTT0=
EXTT1=
EXTT2=
EXTT3=
EXTT4=
EXTT5=
EXTT6=
EXTT7=
EXTT8=
EXTT9=
EXTT10=
EXTT11=
EXTT12=
EXTT13=
EXTT14=
EXTT15=
EXTT16=
EXTT17=
PLAYORDER=
